<?xml version="1.0" standalone="no"?><!DOCTYPE svg PUBLIC "-//W3C//DTD SVG 1.1//EN" "http://www.w3.org/Graphics/SVG/1.1/DTD/svg11.dtd"><svg t="1677204547584" class="icon" viewBox="0 0 1024 1024" version="1.1" xmlns="http://www.w3.org/2000/svg" p-id="9595" width="20" height="20" xmlns:xlink="http://www.w3.org/1999/xlink"><path d="M501.76 963.84c-6.912 0-12.672-5.248-13.184-12.16L458.88 618.24h85.76l-29.696 333.44c-0.512 6.912-6.272 12.16-13.184 12.16z" fill="#3f78f0" p-id="9596"></path><path d="M458.88 618.24l4.48 50.176c13.568 3.968 28.416 6.144 44.16 6.144 11.264 0 22.144-1.152 32.384-3.2l4.736-53.12h-85.76z" fill="#3f78f0" p-id="9597"></path><path d="M501.76 61.44c-159.744 0-289.28 129.536-289.28 289.28s129.536 289.28 289.28 289.28 289.28-129.536 289.28-289.28S661.504 61.44 501.76 61.44z m0 350.72c-33.92 0-61.44-27.52-61.44-61.44s27.52-61.44 61.44-61.44 61.44 27.52 61.44 61.44-27.52 61.44-61.44 61.44z" fill="#3f78f0" p-id="9598"></path></svg>